<svg xmlns="http://www.w3.org/2000/svg" width="720" height="600">
<rect width="720" height="600" style="fill:#00C491" />
<polygon points="221.1,500.2 235.7,503.5 250.3,506.7 264.9,510.0 279.5,513.3 294.2,516.6 308.7,519.8 323.3,523.1 338.0,526.4 352.6,529.6 367.2,532.9 381.8,536.2 396.4,539.4 411.1,542.7 425.7,546.0 440.3,549.2 454.9,552.5 469.5,555.8 484.1,559.0 498.5,562.3 513.3,565.6 529.8,569.2 546.7,571.0 564.0,572.8 588.0,570.0 606.1,564.8 622.5,558.2 641.4,547.1 657.1,534.2 669.8,519.6 680.6,504.6 690.3,486.3 697.0,464.2 699.1,445.2 699.0,426.7 696.8,406.8 691.4,387.1 683.0,368.8 672.8,352.2 660.0,337.1 644.9,323.4 628.0,312.5 609.6,304.3 592.2,299.4 576.6,294.8 561.4,291.5 546.7,289.2 532.1,285.9 517.7,282.7 502.8,279.4 487.5,276.0 476.9,273.6 465.6,270.0 456.1,264.8 448.5,260.0 442.2,253.5 436.1,245.0 429.7,233.3 423.6,221.7 416.9,207.9 410.2,194.1 403.4,181.3 396.8,167.5 389.9,154.7 383.3,141.0 376.8,127.2 369.4,113.3 357.0,95.1 342.8,80.7 328.7,69.3 301.4,57.1 292.8,55.1 278.2,51.9 257.1,47.2 242.8,44.0 228.8,41.9 214.0,38.5 199.1,36.2 184.2,32.9 168.7,30.5 150.1,27.3 127.1,28.3 105.7,34.8 87.5,44.1 70.8,55.7 55.2,70.7 42.6,88.3 33.6,107.8 28.5,126.2 25.5,143.9 24.1,162.1 24.4,180.6 25.4,194.1 25.6,208.5 25.5,222.8 25.4,237.2 25.1,252.5 24.8,267.8 24.6,282.1 24.4,297.4 24.0,312.7 24.0,327.0 23.8,342.4 23.6,358.7 24.8,376.4 27.4,394.4 36.8,418.0 46.9,434.6 65.9,452.2 82.8,462.1 99.1,469.9 115.0,476.5 131.5,481.2 148.2,484.9 163.7,488.4 177.9,490.6 192.1,493.7 206.1,496.9 221.1,500.2 " style="fill:black; stroke-linejoin:bevel; stroke:white; stroke-width:7.5; "/>
<polygon points="236.0,432.9 250.7,436.1 265.3,439.4 280.0,442.7 294.6,445.9 309.1,449.2 323.8,452.5 338.4,455.7 353.0,459.0 367.6,462.3 382.2,465.5 396.9,468.8 411.5,472.1 426.1,475.4 440.7,478.6 455.3,481.9 470.0,485.2 484.5,488.4 499.2,491.7 514.1,495.0 528.3,499.2 541.2,501.1 554.1,503.0 566.6,503.7 572.3,502.9 583.0,500.2 594.4,495.6 601.8,491.1 608.7,485.5 616.0,476.8 622.5,468.0 627.5,458.9 629.5,452.2 630.5,441.1 630.7,429.9 629.5,419.4 626.9,410.6 622.9,401.5 617.2,392.1 610.6,384.4 603.4,377.7 595.1,372.8 586.3,368.7 574.7,365.1 561.2,362.1 547.1,358.9 532.3,355.7 517.7,352.4 503.0,349.1 488.7,345.9 474.4,343.7 455.8,339.6 439.0,332.7 421.5,323.7 404.4,311.7 389.7,297.1 378.3,281.2 369.4,267.0 361.7,251.9 355.6,238.3 348.7,225.4 342.1,211.7 335.3,198.9 328.6,185.1 322.1,171.3 315.1,158.5 308.9,145.8 304.8,138.8 297.6,132.0 289.1,126.0 282.3,122.5 279.7,121.9 262.3,118.0 243.5,113.8 230.2,111.9 215.6,109.6 200.8,106.3 186.2,103.0 171.6,100.8 156.9,97.5 145.3,95.9 138.6,96.5 131.5,99.0 122.6,103.1 113.9,109.4 106.8,116.0 101.7,123.1 98.3,130.5 95.6,140.2 93.6,152.0 92.6,164.1 93.0,175.4 93.7,192.0 94.2,207.5 94.0,223.8 94.0,238.2 93.7,253.5 93.4,268.8 93.3,283.1 92.9,298.4 92.7,313.7 92.6,328.0 92.3,343.3 92.1,357.6 92.9,369.1 94.7,381.8 96.8,385.3 101.8,393.6 105.2,396.4 114.2,401.5 125.3,407.1 137.6,410.8 149.8,414.6 162.2,418.4 176.1,420.5 191.2,423.9 206.7,426.3 221.8,429.7 236.0,432.9 " style="fill:#00C491; stroke-linejoin:bevel; stroke:white; stroke-width:7.5; "/>
<polygon points="228.5,467.0 243.1,470.3 257.7,473.6 272.3,476.8 287.0,480.1 301.6,483.4 316.1,486.6 330.8,489.9 345.4,493.2 360.0,496.5 374.6,499.7 389.2,503.0 403.9,506.2 418.5,509.5 433.0,512.8 447.7,516.0 462.3,519.3 477.0,522.6 491.5,525.8 506.1,529.1 520.8,532.4 535.6,534.7 550.4,537.0 565.4,538.3 580.2,536.5 594.5,532.5 608.5,526.4 621.6,519.1 633.0,509.3 642.9,498.2 651.6,485.8 659.0,472.1 663.4,457.7 664.7,443.7 664.9,428.3 663.3,412.6 659.3,398.4 653.0,384.7 644.8,372.6 635.2,361.2 624.1,350.6 611.6,342.6 597.9,336.5 583.5,332.3 568.7,329.0 554.2,325.7 539.5,322.4 524.9,319.2 510.3,315.9 495.7,312.6 480.9,310.3 466.5,306.1 452.1,301.9 438.7,294.7 426.4,285.9 416.0,275.3 407.2,263.1 399.6,250.1 392.8,236.3 386.1,223.6 379.5,209.8 372.8,196.0 366.0,183.2 359.4,169.4 352.6,156.6 346.0,142.9 339.3,129.1 330.9,116.9 320.2,106.4 308.9,97.7 291.9,89.8 286.3,88.5 270.2,84.9 250.3,80.5 236.4,78.4 222.2,75.2 207.2,72.9 192.7,69.6 178.0,66.4 162.9,64.0 147.6,61.6 132.8,62.4 118.7,66.4 105.1,73.6 92.4,82.1 81.1,92.8 72.3,105.2 65.9,119.2 61.9,133.7 59.4,148.5 58.5,162.6 58.7,178.0 59.4,193.5 59.9,208.0 59.8,223.3 59.5,238.6 59.3,253.0 59.1,268.3 58.7,283.6 58.7,297.9 58.4,313.2 58.2,327.5 58.0,342.8 57.8,358.2 58.9,372.7 61.1,387.6 66.9,401.2 74.3,414.1 85.7,423.8 98.4,431.8 112.3,438.0 126.4,443.2 140.5,448.4 155.2,451.7 169.9,453.9 184.6,457.2 199.2,460.5 213.9,463.8 228.5,467.0 " style="fill:none; stroke-linejoin:bevel; stroke:#ff9f00; stroke-width:2.5; stroke-dasharray:5 ; "/>
<line x1="236.7" y1="429.9" x2="220.2" y2="504.1" style=" stroke:white; stroke-width:5; stroke-dasharray:5 ; "/>
<line x1="352.0" y1="240.5" x2="420.2" y2="206.6" style=" stroke:white; stroke-width:5; stroke-dasharray:5 ; "/>
</svg>