<svg xmlns="http://www.w3.org/2000/svg" width="720" height="600"><rect width="720" height="600" style="fill:#00C491" /><polygon points="221.07542030472302,500.21457694251353 235.71388204468207,503.4880212887266 250.25475403970808,506.7396426726316 264.8932157796672,510.0130870188446 279.5316775196262,513.2865313650576 294.1701392595853,516.5599757112707 308.7110112546114,519.8115970951757 323.3494729945705,523.0850414413887 337.9879347345296,526.3584857876017 352.6263964744886,529.6319301338148 367.1672684695146,532.8835515177198 381.8057302094737,536.1569958639327 396.4441919494328,539.4304402101458 411.08265368939186,542.7038845563588 425.721115429351,545.9773289025718 440.261987424377,549.2289502864768 454.9004491643361,552.5023946326899 469.5389109042951,555.7758389789029 484.0797828993211,559.0274603628079 498.52306514941415,562.2572587844047 513.2591166343062,565.5525260929259 529.7517835279934,569.2406067229925 546.6809096678426,570.976892454398 564.0003947874237,572.8004700350359 587.9966936168084,569.9689258466349 606.0630681384912,564.7866375834938 622.4934671295268,558.2138155871684 641.3812706650295,547.0670278165032 657.071662750956,534.1805389157244 669.7598228771724,519.5979948094481 680.5937778496606,504.6008144193181 690.3258062825962,486.2831283596508 697.0041132773183,464.2084773842843 699.1010914722606,445.208143638533 699.0280451454607,426.74724809595057 696.8310745633482,406.78670400864337 691.39059226523,387.12554553911616 682.9763173526907,368.8487849482398 672.7593267649265,352.21829778371153 659.9589025424735,337.05950034706655 644.8678139201304,323.4378615252291 627.9509594893482,312.48203950368645 609.5986982298587,304.2793261316709 592.1531840200555,299.35347250457653 576.5618749639806,294.84225516133586 561.4354644993562,291.4596960035824 546.6763628812494,289.18397206900806 532.1354908862232,285.9323506851031 517.6922086361303,282.7025522635062 502.76097766137207,279.3636390303689 487.53697745181466,275.9592569103074 476.89969525411107,273.5805540187259 465.6023349750907,270.029547017041 456.10769037129506,264.83226658900816 448.46725092122756,260.04962244482897 442.23916816665235,253.53341302506942 436.05718567850664,244.9781168574163 429.651584355206,233.2987216809986 423.63634201163757,221.7066183538132 416.88648197503426,207.90084458026962 410.2342116833639,194.1168937690341 403.3637117686127,181.3088404071292 396.80903122187544,167.54671255820176 389.9385313071242,154.73865919629682 383.2862610154539,140.9547083850613 376.8291702136498,127.21440349844195 369.39618196251496,113.25586898874172 356.95767737450524,95.10391031718066 342.7679465897745,80.65913478216925 328.7042448952656,69.31663529361424 301.4198273683641,57.06712264136115 292.83192981425475,55.14670195824954 278.19346807429565,51.87325761203647 257.11408316875463,47.15949775348969 242.7683906635947,43.95152229420091 228.79000700495232,41.85038205809127 213.9563657751271,38.533291787262044 199.09967441208715,36.235744890379635 184.16844343732888,32.89683165724233 168.7262136046906,30.468346986511392 150.06352218926128,27.319704559613513 127.0892210756366,28.330391623201933 105.65869495980024,34.80978591576161 87.50011990525843,44.070247674689824 70.75929075828304,55.69714061613291 55.217977895793126,70.66636218942148 42.558257114865626,88.32935937984621 33.583896508179635,107.84117251192498 28.461636220312528,126.16499442612565 25.50940045418747,143.94937813715737 24.11860060699138,162.08292924511855 24.386826423657396,180.58747071231718 25.355841375995453,194.12523308363043 25.618677980587336,208.52977809273386 25.491155605446977,222.84703125260498 25.363633230306675,237.16428441247606 25.115470977018447,252.47925798398583 24.769718978797243,267.7724085931875 24.642196603656885,282.08966175305864 24.394034350368713,297.4046353245684 24.04828235214751,312.6977859337701 24.018349721940183,327.03686205594926 23.77018746865201,342.351835627459 23.596564827082148,358.7081755352237 24.766148481360403,376.38958028924833 27.399578309634535,394.39832947789426 36.77208975036399,418.01285952389344 46.89149059319499,434.62152372611365 65.91460835814928,452.19653412442295 82.75692317721328,462.11098980971076 99.05979979310851,469.8554209732565 114.9953675624862,476.4930169136231 131.46498432295866,481.2006409176365 148.15283070651202,484.9323674723194 163.66960015086863,488.40221847930525 177.94075304431024,490.5688276023392 192.091266059604,493.73315713701174 206.14418932996472,496.8756637093762 221.07542030472302,500.21457694251353 " style="fill:black; stroke-linejoin:bevel; stroke:white; stroke-width:7.5; "/><polygon points="236.03567455236987,432.8558299763937 250.67413629232897,436.12927432260676 265.31259803228807,439.4027186688198 279.95105977224716,442.6761630150328 294.5895215122062,445.94960736124585 309.13039350723227,449.20122874515084 323.76885524719137,452.47467309136385 338.40731698715047,455.74811743757687 353.04577872710956,459.02156178378993 367.5866507221355,462.2731831676949 382.2251124620946,465.54662751390794 396.8635742020537,468.82007186012095 411.50203594201275,472.093516206334 426.14049768197185,475.3669605525471 440.6813696769979,478.618581936452 455.31983141695696,481.89202628266503 469.95829315691606,485.1654706288781 484.49916515194207,488.41709201278303 499.23521663683425,491.7123593213042 514.0688578666594,495.02944959213335 528.2939104936715,499.23514546306086 541.1988069580502,501.0962331137815 554.103703422429,502.95732076450224 566.6412910402903,503.71157319204383 572.3475965128373,502.9382182580193 583.0025396316815,500.1973813175588 594.3867112314867,495.5702183653613 601.8442429007548,491.0896802947872 608.7392862336392,485.4586610764177 615.996249200967,476.83448062313215 622.4724942088304,468.03571647138193 627.4848930426979,458.9096078850104 629.5004491289292,452.1874405512366 630.534718553756,441.14704713628674 630.6906802741851,429.9102470605641 629.4573354323367,419.38746888647495 626.909223639929,410.6200789502743 622.8972656735255,401.52534457945234 617.2262820432597,392.0596198493929 610.630890442167,384.4365752064542 603.4269102382611,377.7021361636138 595.1033425736623,372.766731283278 586.2687760511833,368.7417549653485 574.6786465373639,365.1252790767394 561.2112617366014,362.1137102782234 547.0607487213076,358.94938074355076 532.3246972364155,355.65411343502967 517.6862354964564,352.3806690888166 502.95018401156426,349.08540178029546 488.7020812513374,345.8992492833148 474.4309283578958,343.7326401602809 455.7912870756813,339.5644543594363 438.97741160190606,332.7304517582969 421.52650818002894,323.70460167310733 404.43752439259515,311.6855903530017 389.66225513826606,297.10987704414174 378.2511374780905,281.2370577058632 369.35430305295984,266.95117876154166 361.7491854451737,251.9294549532785 355.5848638781687,238.25461895358342 348.71436396341744,225.4465655916785 342.0620936717471,211.66261478044296 335.28918350192896,198.87638438084613 328.6369132102586,185.09243356961062 322.0822326635214,171.33030572068319 315.1141430038371,158.50042939647017 308.9267713036174,145.84513677072187 304.77112332585125,138.76766618548535 297.56714312194543,132.03322714264493 289.0714461006951,126.03463296374616 282.28626422181037,122.46793885428653 279.6513411086177,121.8787188719682 262.28036651053293,117.9942315811287 243.5431354833853,113.80422281797601 230.24788003927426,111.85584331802298 215.58636816610044,109.60194234575673 200.75272693627525,106.2848520749275 186.21185494124924,103.03323069102254 171.5503430680754,100.77932971875629 156.91188132811635,97.50588537254325 145.2756515478674,95.9284962318277 138.59344862598977,96.48362154277132 131.47478645795042,98.9905417523762 122.55340861468645,103.14373538832902 113.87869973979221,109.40148465909971 106.76542678382691,116.00840132679977 101.70153847145593,123.07360020296966 98.29667582294695,130.50978943837703 95.62643086747295,140.15964912014266 93.59321386010089,152.00135628595845 92.63348404699249,164.0831160371632 92.96547105122858,175.42903092442629 93.67015611405631,191.98177749296372 94.20271182023265,207.47133476293817 94.02908917866276,223.82767467070283 93.99915654845549,238.166750792882 93.65340455023428,253.4599014020837 93.40524229694611,268.77487497359346 93.27771992180575,283.09212813346454 92.93196792358452,298.38527874266623 92.68380567029638,313.700252314176 92.55628329515599,328.0175054740471 92.30812104186782,343.33247904555685 92.0830089217944,357.62790924311986 92.90294465069587,369.08293894192343 94.67572769571316,381.7757416377546 96.75355168459623,385.31447693037285 101.76445723354522,393.6078975503289 105.23158778470591,396.4326109413136 114.23828366383628,401.520776557806 125.29436418656093,407.06722438276825 137.56762191491183,410.836461007534 149.84087964326272,414.6056976322997 162.21172711654663,418.3967572193735 176.092521030256,420.47607449317513 191.21893149488037,423.8586336509286 206.6611613275187,426.28711832165953 221.78757179214307,429.669677479413 236.03567455236987,432.8558299763937 " style="fill:#00C491; stroke-linejoin:bevel; stroke:white; stroke-width:7.5; "/><polygon points="228.49522748947254,467.034063665273 243.13368922943164,470.307508011486 257.67456122445765,473.559129395391 272.31302296441675,476.832573741604 286.9514847043758,480.10601808781706 301.5899464443349,483.3794624340301 316.13081843936095,486.63108381793506 330.76928017932,489.90452816414813 345.4077419192791,493.17797251036114 360.0462036592382,496.45141685657416 374.5870756542642,499.70303824047915 389.22553739422324,502.97648258669216 403.86399913418234,506.24992693290517 418.50246087414143,509.52337127911824 433.0433328691675,512.7749926630232 447.68179460912654,516.0484370092363 462.32025634908564,519.3218813554492 476.95871808904474,522.5953257016623 491.49959008407075,525.8469470855673 506.13805182402984,529.1203914317803 520.7765135639889,532.3938357779933 535.6332049270288,534.6913826748757 550.3923065451357,536.9671066094502 565.3696377863234,538.2669330946939 580.2209399372894,536.4644835334811 594.5328038850864,532.4920094505262 608.5004091195806,526.3931567704456 621.6127567828921,519.0783540556451 633.014589303838,509.33165127140575 642.8780360390697,498.21623771629015 651.5934559683194,485.8194052395307 658.965669601721,472.0975079165113 663.4101908871307,457.7209217242492 664.7087902014678,443.66554411207517 664.8593627098228,428.3287475782573 663.2533198093829,412.5991377228939 659.25902276412,398.3848635200299 652.9971114521818,384.68820455802677 644.8348947200861,372.6159960600635 635.1857816807798,361.23598650142566 624.1473620791958,350.56999884442143 611.5759459039718,342.63529687463625 597.8849422680544,336.49962906735567 583.4647101511762,332.250287271812 568.728658666284,328.95501996329085 554.187786671258,325.7033985793859 539.549324931299,322.4299542331729 524.9108631913399,319.15650988695984 510.2724014513808,315.8830655407468 495.7315294563548,312.63144415684184 480.8748380933148,310.33389725995943 466.4546059764366,306.08455546441576 452.13196360449143,301.8570366311802 438.65918959165504,294.74547137456904 426.40359278444487,285.8566949177613 415.95071165245923,275.3216450346056 407.2029564507651,263.1184987627938 399.55173857654944,250.13586170242417 392.8018785399461,236.33008792888057 386.12655811506096,223.56568049159182 379.4742878233907,209.7817296803563 372.82201753172035,195.99777886912076 366.0491073619022,183.21154846952396 359.3968370702319,169.42759765828842 352.6239269004137,156.6413672586916 345.97165660874344,142.85741644745605 339.3193863170731,129.07346563622053 330.86440035017824,116.93578825133301 320.2163397283265,106.35709244356113 308.93664037044687,97.68654560983427 291.8530457950872,89.76753074782386 286.2904303339028,88.52362189626291 270.1881224199478,84.92283311542855 250.27981445360342,80.47094880457882 236.39902053989408,78.39163153077726 222.2485075246003,75.22730199610464 207.19663667169425,72.88610917460608 192.6557646766682,69.63448779070109 178.01730293670914,66.36104344448808 162.86784233887,63.99802766068137 147.62079199609778,61.61318891456659 132.79253997834667,62.39609510183254 118.67585552041578,66.41221510940358 105.07555913243897,73.61790301266348 92.42811006057806,82.06136391295098 81.1008171513505,92.84943303344528 72.28780747716775,105.22444254789667 65.89149129309678,119.16456949399696 61.93491873235229,133.65027049779945 59.44219234560373,148.4633159362232 58.53395201099889,162.6059853976296 58.676148737442986,178.00825081837172 59.403883933485446,193.5414540129624 59.86190002794345,207.98964494668198 59.808917264521426,223.34826444280793 59.463165266300194,238.64141505200962 59.335642891159836,252.9586682118807 59.08748063787169,268.27364178339053 58.74172863965046,283.5667923925922 58.711796009443134,297.9058685147713 58.36604401122193,313.199019123973 58.23852163608157,327.51627228384416 57.9903593827934,342.8312458553539 57.83978687443829,358.1680423891718 58.88334143849468,372.7471710967399 61.09797294174777,387.58817535200507 66.87193552902056,401.1757195024678 74.3279739133701,414.11471063822125 85.682212882968,423.82662380820295 98.44880854805828,431.80497170260435 112.33499167384167,437.9842854345011 126.43940442270593,443.1877017170673 140.54381717157025,448.3911179996334 155.18227891152932,451.6645623458465 169.94138052963623,453.9402862804208 184.5798422695953,457.21373062663383 199.2183040095544,460.4871749728469 213.85676574951344,463.76061931905997 228.49522748947254,467.034063665273 " style="fill:none; stroke-linejoin:bevel; stroke:#ff9f00; stroke-width:2.5; stroke-dasharray:5 ; "/></svg>